<?xml version="1.0" encoding="UTF-8"?>
<svg width="100px" height="83px" viewBox="0 0 100 83" version="1.1" xmlns="http://www.w3.org/2000/svg" xmlns:xlink="http://www.w3.org/1999/xlink">
    <!-- Generator: Sketch 48.2 (47327) - http://www.bohemiancoding.com/sketch -->
    <title>Portfolio</title>
    <desc>Created with Sketch.</desc>
    <defs></defs>
    <g id="Portfolio" stroke="none" stroke-width="1" fill="none" fill-rule="evenodd" transform="translate(-1010.000000, -1313.000000)">
        <g id="Group" transform="translate(-137.000000, 0.000000)" fill="#000000" fill-rule="nonzero">
            <g id="About-block" transform="translate(174.000000, 813.000000)">
                <g id="Skill-block" transform="translate(294.000000, 504.000000)">
                    <g id="ArtWork" transform="translate(686.273230, 2.257895)">
                        <g id="Art-icon">
                            <path d="M85.6193063,2.26530857 C85.4558585,1.84818665 85.0792004,1.55467152 84.6376081,1.5002111 C84.1972296,1.44595466 83.7606945,1.63931973 83.5023742,2.00442889 C81.9688374,4.17244301 79.9564876,4.89511438 77.6253336,5.73200985 C75.745684,6.40715584 73.8019094,7.1047387 71.7011602,8.62555094 C68.7301729,10.7762275 67.3712097,13.7079112 68.0488707,16.4866163 L67.976452,16.5802393 C66.7358266,14.765504 65.3859663,13.0870217 63.9614621,11.5882384 C57.2967165,4.5761028 47.9840356,0.360417814 38.4104047,0.0224368758 C37.9886366,0.00754694913 37.5599907,0 37.136402,0 C26.4463498,0 16.2142751,4.81862503 9.06404099,13.2200112 C1.95122992,21.5779514 -1.20141102,32.4580004 0.414861107,43.0704387 C0.549988739,43.9575111 0.719100566,44.8537623 0.917948563,45.7349197 C3.54686878,57.402503 10.261377,66.2783271 19.3400119,70.0856609 C21.5779116,71.0243382 23.8352308,71.5 26.0484515,71.5 C31.5472156,71.5 36.3501129,68.5344569 39.2260254,63.3637769 C40.3191837,61.3962669 41.024558,59.3616502 41.3217174,57.3158151 C41.4968978,56.1083032 41.377144,54.9018112 41.2610314,53.732646 C41.1414798,52.5292136 41.0286037,51.391868 41.2092459,50.2467714 C41.6233271,47.6218609 43.4416839,46.0545431 46.0736384,46.0545431 C46.8223021,46.0545431 47.5873511,46.1787618 48.3513886,46.4241397 C47.456876,48.0783493 46.6444919,49.6579054 45.9346673,51.1220135 C44.4302598,54.2248295 43.3925281,56.7944637 42.8493879,58.7587102 C42.5146031,59.9700975 41.6251477,63.1893812 43.7940676,64.7073378 C44.4828544,65.1893227 45.3561268,65.359435 46.2650018,65.1889148 C47.0840613,65.0355281 49.5762356,64.5686372 56.6580968,56.4393491 C58.5587843,54.2578729 60.6069389,51.7333164 62.7477409,48.9344181 C68.2434707,47.068078 72.5202198,42.4234408 73.6516103,37.0863199 C73.9348119,35.7521417 74.0529474,34.3243405 74.002578,32.841263 C76.0602401,29.6348295 77.8650436,26.6429741 79.6811751,23.4267499 C79.7159685,23.3647426 79.7503572,23.2986558 79.7843414,23.2309372 C82.4203417,22.5029626 84.6906073,20.4344866 86.0232732,17.5419654 C87.9688684,13.3203652 87.825447,7.8947207 85.6193063,2.26530857 Z M56.4396235,22.3753903 C55.4684842,23.916629 53.7992292,24.8368421 51.9737842,24.8368421 C50.9826576,24.8368421 50.0131668,24.5565982 49.1704001,24.0261732 C47.9789876,23.2762479 47.1504387,22.1077069 46.8386769,20.7357266 C46.526915,19.3637462 46.7675877,17.9522311 47.5182477,16.7614518 C48.489593,15.2202132 50.159054,14.3 51.9844991,14.3 C52.9758317,14.3 53.9451165,14.5802439 54.7876771,15.1108748 C55.9790896,15.8603883 56.8074324,17.0289293 57.1194003,18.4011155 C57.4311622,19.7733018 57.1898713,21.184611 56.4396235,22.3753903 Z M62.6059098,31.5646798 C65.1963079,27.6582112 67.9357129,23.7751113 70.5377271,20.3210526 C70.959513,20.710941 71.4311681,21.0918099 71.9420778,21.4546398 C72.7886537,22.0558715 73.6740835,22.5207858 74.5785398,22.8391331 C72.3816884,26.6843102 70.0196075,30.4938191 67.1596349,34.8053453 C62.4605078,41.8920078 57.5745212,48.4748081 53.4015249,53.3412386 C51.0706873,56.059388 49.030854,58.1580617 47.4590708,59.4578947 C48.0657134,57.4715548 49.2251238,54.7454108 50.8387652,51.5154047 C53.724173,45.7394396 57.9031777,38.6542121 62.6059098,31.5646798 Z M16.5694736,31.6105263 C15.5778608,31.6105263 14.608096,31.3302824 13.764885,30.7996515 C12.5731358,30.0499321 11.744765,28.881803 11.4327089,27.5094108 C11.1206528,26.1372245 11.362218,24.7257094 12.1130901,23.5349301 C13.0840916,21.9938974 14.7540245,21.0736842 16.5797793,21.0736842 C17.5715983,21.0736842 18.5413631,21.3539281 19.3843679,21.884559 C21.8445406,23.4325927 22.5857254,26.6915351 21.0371934,29.1488686 C20.0651614,30.6903132 18.3950224,31.6105263 16.5694736,31.6105263 Z M11.3590451,43.1038111 C12.3301754,41.5623364 13.999415,40.6421053 15.8248431,40.6421053 C16.8159606,40.6421053 17.7852364,40.9225606 18.6284074,41.4529959 C19.8198089,42.20273 20.647938,43.3710879 20.959903,44.7433009 C21.2720741,46.1151022 21.0305794,47.526439 20.2797203,48.7176534 C19.3090022,50.2585103 17.6395565,51.1789474 15.8143344,51.1789474 C14.8230109,51.1789474 13.853323,50.898698 13.010152,50.3680567 C11.8187505,49.6181168 10.9908275,48.4499648 10.6790685,47.0777517 C10.3675156,45.7059504 10.6092163,44.2944077 11.3590451,43.1038111 Z M27.9322748,12.2456623 C28.9037454,10.7044237 30.5737762,9.78421053 32.399638,9.78421053 C33.3908967,9.78421053 34.3607183,10.0644545 35.2037726,10.5948794 C37.6642956,12.1425012 38.4055237,15.4016495 36.8566949,17.8593949 C35.884812,19.4008395 34.2147813,20.3210526 32.3889194,20.3210526 C31.3974546,20.3210526 30.427633,20.0408087 29.5845787,19.5101779 C28.3929658,18.7606643 27.5647526,17.5923293 27.2526782,16.2199371 C26.9401916,14.8479567 27.1817709,13.4366475 27.9322748,12.2456623 Z" id="Shape"></path>
                        </g>
                    </g>
                </g>
            </g>
        </g>
    </g>
</svg>