<?xml version="1.0" encoding="UTF-8"?>
<svg width="100px" height="83px" viewBox="0 0 100 83" version="1.1" xmlns="http://www.w3.org/2000/svg" xmlns:xlink="http://www.w3.org/1999/xlink">
    <!-- Generator: Sketch 48.2 (47327) - http://www.bohemiancoding.com/sketch -->
    <title>Portfolio</title>
    <desc>Created with Sketch.</desc>
    <defs></defs>
    <g id="Portfolio" stroke="none" stroke-width="1" fill="none" fill-rule="evenodd" transform="translate(-560.000000, -1313.000000)">
        <g id="Group" transform="translate(-137.000000, 0.000000)" fill="#000000" fill-rule="nonzero">
            <g id="About-block" transform="translate(174.000000, 813.000000)">
                <g id="Skill-block" transform="translate(294.000000, 504.000000)">
                    <g id="Code" transform="translate(232.775442, 6.021053)">
                        <g id="Code-icon" transform="translate(11.299779, 0.000000)">
                            <path d="M67.2651634,0 L4.30064937,0 C1.92879599,0 0,1.92080828 0,4.28180558 L0,60.4446919 C0,62.8056892 1.92879599,64.7263158 4.30064937,64.7263158 L67.2653459,64.7263158 C69.6364694,64.7263158 71.5652654,62.8056892 71.5652654,60.4446919 L71.5652654,4.28180558 C71.5658128,1.92098995 69.6362869,0 67.2651634,0 Z M54.2389381,6.70970445 C54.2389381,5.91379408 54.9135052,5.26842105 55.7454598,5.26842105 L57.2523278,5.26842105 C58.0848018,5.26842105 58.7588496,5.91362847 58.7588496,6.70970445 L58.7588496,8.34309273 C58.7588496,9.13900311 58.0842824,9.78421053 57.2523278,9.78421053 L55.7454598,9.78421053 C54.9135052,9.78421053 54.2389381,9.13900311 54.2389381,8.34309273 L54.2389381,6.70970445 Z M46.7057522,6.70970445 C46.7057522,5.91379408 47.3806139,5.26842105 48.2125048,5.26842105 L49.7189111,5.26842105 C50.550802,5.26842105 51.2256637,5.91362847 51.2256637,6.70970445 L51.2256637,8.34309273 C51.2256637,9.13900311 50.550802,9.78421053 49.7189111,9.78421053 L48.2125048,9.78421053 C47.3806139,9.78421053 46.7057522,9.13900311 46.7057522,8.34309273 L46.7057522,6.70970445 Z M67.045354,59.4578947 L5.27323009,59.4578947 L5.27323009,15.0526316 L67.045354,15.0526316 L67.045354,59.4578947 Z M66.2920354,8.34309273 C66.2920354,9.13900311 65.6174941,9.78421053 64.7855714,9.78421053 L63.2787611,9.78421053 C62.4461458,9.78421053 61.7721239,9.13900311 61.7721239,8.34309273 L61.7721239,6.70970445 C61.7721239,5.91379408 62.4466652,5.26842105 63.2787611,5.26842105 L64.7855714,5.26842105 C65.6176672,5.26842105 66.2920354,5.91362847 66.2920354,6.70970445 L66.2920354,8.34309273 Z" id="Shape"></path>
                            <path d="M12.070924,39.361369 L25.6330835,45.6659591 C25.9837252,45.8282159 26.3569405,45.9105263 26.7428398,45.9105263 C27.2454765,45.9105263 27.7354289,45.7678263 28.1613157,45.4970401 C28.92387,45.0098399 29.3794248,44.1796438 29.3794248,43.2761636 L29.3794248,43.2069626 C29.3794248,42.1857119 28.7806895,41.2478461 27.8538861,40.8175969 L19.3716243,36.8778728 L27.8538861,32.9377189 C28.7806895,32.5070399 29.3794248,31.569389 29.3794248,30.5485681 L29.3794248,30.4800119 C29.3794248,29.5752422 28.92387,28.7446163 28.1613157,28.2591354 C27.7397286,27.9898535 27.2484863,27.8473684 26.7413349,27.8473684 C26.3588753,27.8473684 25.9753408,27.9313981 25.6320086,28.0908611 L12.070709,34.3948065 C11.1447655,34.8254855 10.5464602,35.7635662 10.5464602,36.7839573 L10.5464602,36.9724331 C10.5462452,37.9913198 11.1441206,38.9289707 12.070924,39.361369 Z" id="Shape"></path>
                            <path d="M29.1343,52.3748273 C29.6304314,53.039695 30.4284244,53.4368421 31.2688937,53.4368421 L31.3370282,53.4368421 C32.4910025,53.4368421 33.5020237,52.7134897 33.8536926,51.6385956 L42.8135956,24.4524958 C43.0706093,23.6679139 42.9280875,22.8018335 42.4317406,22.135699 C41.9356092,21.4706201 41.1376162,21.0736842 40.2969313,21.0736842 L40.2290124,21.0736842 C39.0746069,21.0736842 38.0625076,21.7968255 37.7108387,22.8717195 L28.7500732,50.0599308 C28.495,50.8455683 28.6386,51.7103819 29.1343,52.3748273 Z" id="Shape"></path>
                            <path d="M42.9391593,30.5483532 C42.9391593,31.5680996 43.5374509,32.5059654 44.4644482,32.9387935 L52.9465164,36.8778728 L44.4644482,40.8171671 C43.5378809,41.2478461 42.9391593,42.1857119 42.9391593,43.2065328 L42.9391593,43.2757337 C42.9391593,44.1794289 43.3942737,45.009625 44.1576706,45.4970401 C44.5820427,45.7673965 45.072199,45.9105263 45.5754691,45.9105263 C45.9609297,45.9105263 46.3339214,45.8282159 46.6869199,45.6650995 L60.2479099,39.3607243 C61.1738323,38.9289707 61.7721239,37.9913198 61.7721239,36.9720033 L61.7721239,36.7835275 C61.7721239,35.7631364 61.1738323,34.8250556 60.24705,34.3943767 L46.68606,28.0904313 C46.3440255,27.9313981 45.9609297,27.8473684 45.5784788,27.8473684 C45.072199,27.8473684 44.5803229,27.9894237 44.1587455,28.2582757 C43.3953486,28.7446163 42.9398042,29.5750273 42.9398042,30.479797 L42.9398042,30.5481383 L42.9391593,30.5481383 L42.9391593,30.5483532 Z" id="Shape"></path>
                        </g>
                    </g>
                </g>
            </g>
        </g>
    </g>
</svg>