<?xml version="1.0" encoding="UTF-8"?>
<svg width="21px" height="21px" viewBox="0 0 21 21" version="1.1" xmlns="http://www.w3.org/2000/svg" xmlns:xlink="http://www.w3.org/1999/xlink">
    <!-- Generator: Sketch 48.2 (47327) - http://www.bohemiancoding.com/sketch -->
    <title>Linkdin</title>
    <desc>Created with Sketch.</desc>
    <defs></defs>
    <g id="1440" stroke="none" stroke-width="1" fill="none" fill-rule="evenodd" transform="translate(-146.000000, -713.000000)">
        <g id="Linkdin" transform="translate(146.000000, 713.000000)">
            <circle id="Oval-2-Copy" fill="#000000" cx="10.5" cy="10.5" r="10.5"></circle>
            <path d="M7.48432056,8.25 C7.05226265,8.25 6.69686551,8.10740883 6.41811847,7.82222222 C6.13937143,7.53703561 6,7.17963178 6,6.75 C6,6.31296078 6.14285571,5.95370511 6.42857143,5.67222222 C6.71428714,5.39073933 7.07665286,5.25 7.51567944,5.25 C7.94076868,5.25 8.29268153,5.3888875 8.57142857,5.66666667 C8.85017561,5.94444583 8.99303132,6.30184967 9,6.73888889 C9,7.17592811 8.85888643,7.53703561 8.57665505,7.82222222 C8.29442368,8.10740883 7.9338001,8.25 7.49477352,8.25 L8.69083969,8.25 C8.77480958,8.25 8.84732794,8.27650931 8.90839695,8.32952872 C8.96946595,8.38254813 9,8.44550774 9,8.51840943 L9,14.7415317 C9,14.8144334 8.96946595,14.8757361 8.90839695,14.9254418 C8.84732794,14.9751475 8.77480958,15 8.69083969,15 L6.30916031,15 C6.22519042,15 6.15267206,14.9751475 6.09160305,14.9254418 C6.03053405,14.8757361 6,14.8144334 6,14.7415317 L6,8.51840943 C6,8.44550774 6.03053405,8.38254813 6.09160305,8.32952872 C6.15267206,8.27650931 6.22519042,8.25 6.30916031,8.25 L7.48432056,8.25 Z M15.75,14.9902878 L15.75,15 L14.1520619,15 L14.1520619,14.9855208 C14.1022795,14.9762759 14.0579283,14.9535845 14.0190073,14.917446 C13.9667068,14.8688846 13.9405569,14.8089932 13.9405569,14.7377698 L13.9405569,11.4841727 C13.9405569,10.9273353 13.8359575,10.6019789 13.6267555,10.5080935 C13.4175534,10.4142082 13.263923,10.3672662 13.1658596,10.3672662 C12.9108946,10.3672662 12.7229425,10.4417259 12.6019976,10.5906475 C12.4810527,10.7395691 12.4009687,10.8561147 12.3617434,10.9402878 C12.3486682,10.9791369 12.3372277,11.0325536 12.3274213,11.1005396 C12.317615,11.1685255 12.3127119,11.2478413 12.3127119,11.3384892 L12.3127119,14.7377698 C12.3127119,14.8089932 12.286562,14.8705033 12.2342615,14.9223022 C12.181961,14.974101 12.1198551,15 12.0479419,15 L10.0082325,15 L9.75,15 C9.75,14.7937933 9.75108959,14.4990038 9.75326879,14.1156254 L9.75326879,13.8442446 C9.75326879,13.2615079 9.75490316,12.610795 9.75817194,11.8920863 C9.75898567,11.7131706 9.75969812,11.5364624 9.76030928,11.3619615 L9.76030928,10.3901193 C9.76030928,9.84497172 9.75687289,9.42930296 9.75,9.14310051 L9.76122,9.14310051 C9.75961329,8.90294874 9.7569629,8.74445791 9.75326879,8.6676259 C9.74673123,8.62877678 9.74999996,8.59316563 9.76307509,8.56079137 C9.77615022,8.5284171 9.79576261,8.49928071 9.82191286,8.47338129 C9.84806311,8.44748188 9.87748171,8.42805762 9.91016952,8.41510791 C9.94285733,8.40215821 9.97554466,8.39568345 10.0082325,8.39568345 L12.0479419,8.39568345 C12.1198551,8.39568345 12.181961,8.42158247 12.2342615,8.47338129 C12.286562,8.52518012 12.3127119,8.58669029 12.3127119,8.65791367 L12.3127119,8.80359712 C12.4826885,8.65467551 12.6967905,8.52518041 12.9550242,8.41510791 C13.213258,8.30503542 13.5254219,8.25 13.8915254,8.25 C14.3033919,8.25 14.6694899,8.31798493 14.9898305,8.45395683 C15.3101711,8.58992874 15.5831103,8.78740878 15.8086562,9.04640288 C16.0342021,9.30539698 16.2058106,9.61942262 16.3234867,9.98848921 C16.4411628,10.3575558 16.5,10.7784149 16.5,11.2510791 L16.5,14.7377698 C16.5,14.8089932 16.4754845,14.8688846 16.4264528,14.917446 C16.3774211,14.9660074 16.3169495,14.9902878 16.2450363,14.9902878 L15.75,14.9902878 Z" id="social-linkedin---simple-line-icons" fill="#FFFFFF"></path>
        </g>
    </g>
</svg>