<?xml version="1.0" encoding="UTF-8"?>
<svg width="108px" height="99px" viewBox="0 0 108 99" version="1.1" xmlns="http://www.w3.org/2000/svg" xmlns:xlink="http://www.w3.org/1999/xlink">
    <!-- Generator: Sketch 48.2 (47327) - http://www.bohemiancoding.com/sketch -->
    <title>Logo</title>
    <desc>Created with Sketch.</desc>
    <defs></defs>
    <g id="Portfolio" stroke="none" stroke-width="1" fill="none" fill-rule="evenodd" transform="translate(-906.000000, -3236.000000)">
        <g id="Logo" transform="translate(906.000000, 3236.000000)" fill="#000000" fill-rule="nonzero">
            <path d="M37.7021773,93.1745125 C42.8279378,93.2538528 47.6569688,91.8860252 52.4493075,90.375385 C56.1935216,89.1948006 59.929759,87.9840669 63.6165415,86.6574963 C67.2107956,85.3674222 70.7555947,83.9424695 74.0291896,81.9240511 C74.6723086,81.5625357 75.4030777,81.3841122 76.1413921,81.4083388 C77.5771794,81.4416618 78.3891968,82.7269754 77.8132866,84.045612 C77.5476917,84.6762123 77.1107236,85.2207445 76.5513892,85.6181377 C74.0579053,87.2160523 71.58197,88.8885469 68.9465028,90.2309856 C66.227485,91.6100772 63.4206375,92.8106825 60.5439569,93.8251033 C56.7040237,95.1992782 52.8034684,96.4004911 48.8869599,97.5461657 C45.4142184,98.5454929 41.8132879,99.0346378 38.1983216,98.9980941 C35.1384995,98.9838128 32.0994165,98.8283057 29.0938352,98.1793017 C25.9303174,97.4969747 22.9646191,96.2989354 20.0579476,94.9231738 C17.1492812,93.5561489 14.4258004,91.8292672 11.952131,89.783506 C9.48171139,87.7322352 7.34059146,85.3178668 5.60276084,82.623833 C2.91305276,78.4790931 1.26508808,73.9043287 0.478595743,69.0820223 C0,66.1559502 0,63.1346698 0,60.1562331 C0,56.5287923 0.524859999,52.9410218 1.37835574,49.4119631 C2.2233548,45.999412 3.41258022,42.6804367 4.92794084,39.5055272 C6.21536339,36.7682851 7.73410721,34.1675085 9.62934636,31.7999925 C10.1558017,31.1414676 10.7141634,30.4639011 11.3841974,29.9799249 C11.9808468,29.5546607 12.7481953,29.3293341 13.4724702,29.1278096 C13.9702098,28.9897574 14.5237855,29.0564033 15.0502408,29.0103859 C16.5354829,28.8834413 17.39536,29.9354943 16.8752859,31.3287109 C16.6913578,31.8520243 16.3838981,32.323813 15.9787166,32.7044725 C13.2140285,35.1021378 11.6187093,38.2709913 10.1414438,41.4922095 C8.33713785,45.4243172 7.01940424,49.5262132 6.41796892,53.818526 C5.60914211,59.6611493 5.38579743,65.4926649 6.99387913,71.2734027 C9.08215189,78.7726524 13.416634,84.5184805 20.2781016,88.3268172 C23.8197102,90.292871 27.4889442,91.9653656 31.5346735,92.5762863 C33.5718961,92.8888872 35.645811,92.9825088 37.7021773,93.1745125 Z" id="Shape"></path>
            <path d="M53.9532534,31.4327927 C52.4886142,32.4869221 51.1834442,33.5744403 49.7451252,34.4250576 C47.944517,35.4887267 46.0912685,36.5110574 44.1559631,37.2646884 C42.3847715,37.9547218 40.4401766,37.9722112 38.5946693,37.4443515 C37.1191924,37.0246076 36.00136,36.0245361 35.2690404,34.6524188 C34.5367209,33.2803016 35.3743211,31.9606524 36.8761181,32.1085167 C37.3684598,32.1562148 37.9691786,32.2961295 38.2974064,32.6268367 C39.8317166,34.1754372 41.640066,33.9130973 43.2626261,33.1944449 C45.2955794,32.2959825 47.2268607,31.1721175 49.0220951,29.8428538 C51.9823383,27.6391986 54.7877571,25.2145418 57.6365267,22.8471228 C58.3205481,22.2563473 58.9650443,21.6189291 59.5656392,20.9391962 C60.4140771,20.0154417 61.6789927,19.7292528 62.7395401,20.2777817 C64.2877845,21.0727511 64.4317712,22.9806777 63.049189,24.0300374 C61.471528,25.2288513 59.9232836,26.4467444 58.3502673,27.6550979 C57.9291449,27.9730857 57.7634827,28.3658006 57.6783293,28.9079698 C57.004843,33.192855 57.4383514,37.4634307 57.7898029,41.7324166 C58.30382,47.9840561 58.9974335,54.229336 58.7667451,60.5175441 C58.5809558,65.5544704 57.2881717,70.2893083 54.5771958,74.536035 C53.2596399,76.6029555 51.5209615,78.1610956 49.0933143,78.7859416 C45.967409,79.5904507 41.6834168,78.0561597 40.0298918,75.3755227 C39.574708,74.6377911 39.3393749,73.7331159 39.1195242,72.8745489 C38.9646997,72.2830917 39.0204365,71.6025978 39.6954711,71.3068692 C40.3240583,71.0318098 40.7947246,71.443604 41.1755927,71.8887868 C42.0338349,72.9199034 43.1252267,73.719137 44.3541383,74.2164573 C45.0156311,74.5056608 45.7062067,74.7189458 46.4133033,74.8524329 C48.4151833,75.1529313 49.8999496,74.2291768 51.0456505,72.6090291 C52.6821447,70.2956681 53.5569028,67.6515998 54.2396786,64.916905 C55.0463139,61.6877391 54.9658052,58.3981556 54.8496868,55.1197017 C54.7087966,51.1448546 54.3403145,47.1954465 54.179297,43.228549 C54.0244726,39.5716897 54.0244726,35.9243699 53.9625428,32.2722804 C53.9532534,32.0321996 53.9532534,31.7905289 53.9532534,31.4327927 Z" id="Shape"></path>
            <path d="M48,51.8513848 C47.5893426,58.193861 45.4793605,63.1562762 41.2808485,67.0514014 C38.8169042,69.3375303 35.5224513,69.6309545 32.8531784,67.8317162 C31.2978902,66.7821605 30.4735108,65.134471 29.8759124,63.3642527 C28.9565302,60.6670075 28.5903096,57.850458 28.2930427,55.0210107 C28.1643292,53.7941107 28.0110988,52.5639863 28.0003727,51.333862 C27.9911789,50.4406917 28.1536031,49.5378481 28.3190919,48.6543512 C28.4294177,48.0529929 28.7542661,47.5257967 29.4070275,47.4645323 C30.0965641,47.4000435 30.5577875,47.8772608 30.7079533,48.4931291 C31.0481247,49.8893122 31.2764379,51.3145153 31.5522526,52.7268206 C32.1161403,55.6126957 32.664705,58.5034073 33.2607711,61.3812212 C33.4046542,61.9502218 33.6206007,62.4962829 33.9028064,63.0047275 C34.9294498,65.0377377 36.746762,65.4375685 38.4997173,64.0204265 C40.067264,62.7499966 41.182781,61.0926337 42.1006309,59.2724366 C43.4408522,56.661177 44.1090599,53.7266742 44.0389951,50.7599114 C44.0190751,49.9215567 43.8413279,49.0848141 43.8260048,48.2464594 C43.8260048,47.8337309 43.8964908,47.2114137 44.1462563,47.0566405 C44.3960218,46.9018673 45.0028141,47.0872727 45.2847579,47.3355547 C46.0034083,47.9707696 46.778754,48.6253312 47.2491712,49.4556249 C47.7195884,50.2859185 47.8467696,51.333862 48,51.8513848 Z" id="Shape"></path>
            <path d="M84,33.3814069 C83.5465453,38.4083121 82.5770904,42.8449019 79.831344,46.7910993 C76.3522519,51.7918708 68.6325765,50.6696565 66.3840667,45.3506681 C65.3379936,42.8802593 64.6155934,40.2776444 63.7415203,37.7349835 C63.5585748,37.2015474 63.3130838,36.6865586 63.1723565,36.1438988 C63.0356094,35.6804454 62.9795707,35.1975925 63.006611,34.7157658 C63.0973019,33.8072334 63.9213386,33.3860187 64.7266116,33.8487399 C65.6882483,34.4052353 66.6029759,34.997088 67.0110851,36.1546598 C67.7147217,38.1531236 68.5043583,40.137752 69.2752313,42.1193057 C69.4915139,42.6669905 69.741104,43.2013913 70.0226498,43.7196141 C70.9608319,45.449054 72.5244688,46.2361413 74.439924,45.7887928 C75.0466151,45.6473631 75.6689426,45.2015519 76.0926882,44.729607 C77.6485069,42.994018 78.4162526,40.857199 78.9072346,38.6465905 C79.4341803,36.3022386 79.8250895,33.9256039 80.2566533,31.5612675 C80.3879988,30.8433578 80.5693806,30.1608055 81.4121809,30.0239876 C82.2174539,29.8871697 82.789745,30.3514282 83.0977815,31.0139958 C83.4965089,31.871798 83.7826545,32.7818677 84,33.3814069 Z" id="Shape"></path>
            <path d="M94.231623,28 C93.0203158,28 92.235613,27.4362814 92.0425512,26.547812 C91.8298152,25.5234564 92.4330218,24.5053089 93.4438063,24.182645 C94.9524909,23.6449678 96.4860868,23.1700962 98.0196826,22.7013519 C100.894666,21.8448296 103.850223,21.276183 106.841362,21.0040689 C107.207245,20.9673046 107.825354,21.1848265 107.940569,21.4483036 C108.086922,21.7822456 107.940569,22.3352413 107.744393,22.7044156 C106.842919,24.4078261 105.217463,25.07571 103.439426,25.5413905 C100.587093,26.2889304 97.7472164,27.087021 94.9026685,27.8590704 C94.6302022,27.9325989 94.3421665,27.9754905 94.231623,28 Z" id="Shape"></path>
            <path d="M90.9985647,2.47079389 C91.0353417,4.18045119 90.3589642,5.80406795 89.7049727,7.42290467 C89.1229362,8.87444036 88.4529547,10.2909225 87.8405372,11.7249314 C87.7185628,12.0439997 87.6264939,12.3736349 87.565509,12.7096175 C87.2808868,14.011379 86.1264079,14.4033414 85.0966511,13.538156 C84.0668942,12.6729706 83.70552,11.0907808 84.2571754,9.75396583 C84.984721,7.98854152 85.7698306,6.24861071 86.5117672,4.49593315 C86.7372263,3.95897648 86.8155774,3.34394599 87.1145906,2.85956964 C87.6630481,1.97207746 88.2338915,1.06865184 88.9694321,0.335713954 C89.6458096,-0.343050265 90.5940174,0.0648456035 90.8386646,1.04475169 C90.9489957,1.468581 90.9425997,1.92746385 90.9985647,2.47079389 Z" id="Shape"></path>
            <path d="M94.2008038,16 C93.115583,15.9735267 92.5326644,15.6714193 92.2210511,14.9971282 C91.8274306,14.2292527 91.9686976,13.2943502 92.5714223,12.6783765 C93.518665,11.6568177 94.5124172,10.6726329 95.5511285,9.74450937 C96.1820911,9.21485619 96.8609847,8.74563682 97.578941,8.34298048 C98.2347245,7.94899513 98.9664733,7.80728499 99.594351,8.39436987 C100.222229,8.98145475 99.9974331,9.68533371 99.741631,10.4063425 C99.3432,11.5260083 98.6192027,12.3466814 97.726221,13.0926062 C96.9510633,13.7373095 96.3061321,14.5268374 95.5402763,15.1777697 C95.0643295,15.5717551 94.4860618,15.8318165 94.2008038,16 Z" id="Shape"></path>
        </g>
    </g>
</svg>