<?xml version="1.0" encoding="UTF-8"?>
<svg width="863px" height="565px" viewBox="0 0 863 565" version="1.1" xmlns="http://www.w3.org/2000/svg" xmlns:xlink="http://www.w3.org/1999/xlink">
    <!-- Generator: Sketch 48.2 (47327) - http://www.bohemiancoding.com/sketch -->
    <title>BigTitle</title>
    <desc>Created with Sketch.</desc>
    <defs>
        <filter x="-5.3%" y="-4.9%" width="110.9%" height="119.4%" filterUnits="objectBoundingBox" id="filter-1">
            <feOffset dx="1" dy="30" in="SourceAlpha" result="shadowOffsetOuter1"></feOffset>
            <feGaussianBlur stdDeviation="10" in="shadowOffsetOuter1" result="shadowBlurOuter1"></feGaussianBlur>
            <feColorMatrix values="0 0 0 0 1   0 0 0 0 0.262745098   0 0 0 0 0.180392157  0 0 0 0.397814764 0" type="matrix" in="shadowBlurOuter1" result="shadowMatrixOuter1"></feColorMatrix>
            <feMerge>
                <feMergeNode in="shadowMatrixOuter1"></feMergeNode>
                <feMergeNode in="SourceGraphic"></feMergeNode>
            </feMerge>
        </filter>
    </defs>
    <g id="Portfolio" stroke="none" stroke-width="1" fill="none" fill-rule="evenodd" transform="translate(-390.000000, -240.000000)">
        <g id="MainBanner" transform="translate(-14.000000, 0.000000)" fill="#000000" fill-rule="nonzero">
            <g id="BigTitle" filter="url(#filter-1)" transform="translate(422.000000, 240.000000)">
                <path d="M0,367.325583 C4.28134417,362.101599 10.4826036,362.785612 14.8241542,366.091677 C26.1964747,374.755846 38.2979615,373.729826 50.7004804,369.538568 C62.5745209,365.51496 72.4082333,357.963989 82.1951185,350.453254 C87.0985955,346.69118 91.6140757,342.406038 96.2432791,338.275133 C96.9757605,337.636078 97.4630775,336.761024 97.6213367,335.800614 C98.1698839,328.920245 98.3505032,322.006345 99.0662904,315.152799 C100.40421,302.344314 101.815716,289.502298 109.013726,278.269726 C114.124581,270.302982 121.570106,267.633988 131.229888,269.639086 C143.110619,272.100193 147.111,282.011681 145.672735,292.620594 C143.806337,306.35451 136.380881,317.432844 128.339981,328.108817 C124.553667,333.145033 120.044877,337.631356 116.171598,342.607218 C115.061125,344.035599 114.559405,346.288819 114.539336,348.173209 C114.385475,361.236523 114.492509,374.326661 114.385475,387.356445 C114.271752,401.640254 113.984099,415.917356 113.830238,430.201165 C113.756653,437.483895 113.830238,444.75992 113.830238,452.04265 L114.927333,452.478541 C121.50321,447.489267 128.139293,442.593877 134.628205,437.497307 C146.522315,428.162537 158.302701,418.673528 170.2035,409.332051 C172.745548,407.320247 175.668903,406.01928 179.100668,406.797178 C181.91699,407.467779 184.331935,408.487093 185.362134,411.578566 C186.59971,415.313815 186.09799,418.874708 183.315116,421.429699 C179.147495,425.258833 174.511602,428.571603 170.069708,432.098967 C160.222616,439.918178 150.475868,447.864804 140.494985,455.516365 C132.915668,461.323773 125.149042,466.916588 117.268693,472.281399 C102.966327,482.092296 88.6372036,491.883076 74.087323,501.325143 C66.1066299,506.502185 57.9252487,511.585343 48.4728435,513.751385 C40.216019,515.734822 31.5690551,515.349053 23.5206345,512.638187 C19.6941832,511.343927 16.3493831,506.602775 17.0517911,502.713287 C17.3394439,501.090432 18.7977768,498.897566 20.2092824,498.428145 C23.3600841,497.375301 27.1463979,496.087746 30.089822,496.93941 C38.9869904,499.568167 46.8272019,497.422243 54.1857622,492.808506 C65.3774634,485.767192 76.3484079,478.363753 87.4063171,471.114552 C87.8745891,470.806076 88.2960339,470.443951 88.7442372,470.14218 C97.2734775,464.831018 97.6815431,463.831822 95.9355575,454.087984 C95.6641921,452.104191 95.5679347,450.100267 95.6479046,448.099514 C95.6479046,436.498111 95.5542502,424.896708 95.741559,413.295305 C95.9489367,400.647764 96.4640359,388.006929 96.7717575,375.359387 C96.8854807,370.624942 96.7717575,365.890496 96.7717575,360.827456 C91.7077301,364.636472 86.9982515,368.445488 82.0211889,371.865554 C70.4481804,379.81218 58.1995223,386.531606 44.1045346,388.516586 C33.4613805,390.012027 22.9118809,389.059773 13.0714789,384.050381 C7.61945471,381.247267 3.54548814,376.928594 0,372.019793 L0,367.325583 Z M116.746904,314.488904 C122.533408,306.186859 128.707909,298.112819 128.614255,287.39661 C125.704279,285.753637 123.931535,286.498004 122.486581,289.187115 C118.292202,297.100211 117.409174,305.750968 116.746904,314.488904 Z" id="Shape"></path>
                <path d="M437.624391,0 C441.542921,1.59884517 445.18682,3.38500274 444.992568,8.55616305 C444.845204,12.7372435 442.427103,15.4532734 439.010948,17.0721877 C424.421958,23.9826775 409.672208,30.5921295 395.063122,37.4624809 C377.901969,45.5971911 360.593452,53.4576223 343.78731,62.2144772 C326.833805,71.0382294 310.449659,80.9457177 293.690406,90.1440947 C281.133247,97.0389751 268.430957,103.701945 255.583536,110.133004 C252.311661,111.744416 248.759046,112.709794 245.120725,112.976139 C239.23958,113.404282 236.057867,107.992291 239.286468,103.055271 C240.827087,100.700487 243.479631,98.8273626 245.984811,97.4225196 C253.895553,93.0407472 262.060833,89.0670484 269.998369,84.7722425 C275.249869,81.9357975 280.360705,78.8317634 285.51173,75.8146957 C294.085609,70.7907095 302.56571,65.6128594 311.219969,60.7360472 C321.609098,54.8825345 331.984831,48.9554349 342.635195,43.6371005 C357.646181,36.1646735 372.905005,29.2341146 388.056656,22.0761048 C403.462844,14.7263229 418.869032,7.36762125 434.27522,0 L437.624391,0 Z" id="Shape"></path>
                <path d="M526.542681,401.252431 C548.097137,401.589022 568.403808,395.786183 588.556184,389.377479 C604.301066,384.368995 620.012406,379.232607 635.515782,373.604796 C650.630064,368.131816 665.536381,362.086631 679.302252,353.52374 C682.006647,351.990056 685.079621,351.233116 688.184325,351.335894 C694.221987,351.477263 697.636621,356.930047 695.214847,362.5242 C694.097988,365.199444 692.260483,367.509554 689.908413,369.195445 C679.423005,376.00806 669.011392,383.069752 657.928927,388.798541 C646.495121,394.649167 634.691981,399.742586 622.595184,404.046141 C606.447791,409.875908 590.045474,414.971905 573.576072,419.832288 C558.972766,424.07181 543.830409,426.146947 528.629029,425.991914 C515.762099,425.931328 502.98238,425.271608 490.34354,422.518289 C477.040557,419.623601 464.56943,414.541068 452.346517,408.704569 C440.115216,402.905135 428.662643,395.579053 418.260558,386.900164 C407.872138,378.197902 398.868465,367.955242 391.560672,356.526137 C380.250118,338.908932 373.320223,319.50106 370.012926,299.043021 C368.000371,286.629523 368.000371,273.812114 368.000371,261.176465 C367.966829,245.787496 370.207473,230.566823 373.796527,215.595228 C377.349853,201.117903 382.350692,187.03756 388.722971,173.568399 C394.136742,161.955989 400.523247,150.922516 408.492962,140.878622 C410.706771,138.084912 413.054751,135.210419 415.872327,133.15721 C418.381311,131.353079 421.608106,130.397159 424.653772,129.542216 C426.746828,128.956547 429.074682,129.239284 431.288492,129.044061 C437.534118,128.505514 441.150007,132.968719 438.963032,138.879268 C438.189591,141.09936 436.896685,143.100865 435.192847,144.715766 C423.566992,154.887565 416.858478,168.331034 410.646395,181.996653 C403.059065,198.678134 397.490999,216.07992 394.988723,234.289527 C391.587506,259.076133 390.648314,283.815617 397.410497,308.339682 C406.191941,340.154321 424.418974,364.550481 453.272292,380.706879 C468.165193,389.047619 483.594775,396.14297 500.607566,398.734725 C509.174339,400.040701 517.895407,400.437879 526.542681,401.252431 Z" id="Shape"></path>
                <path d="M75.5626181,136.798083 L127.863732,110.046087 C125.616761,102.358885 123.680183,93.7524164 120.556016,85.5989196 C117.047233,76.4595425 112.074207,67.8730578 108.518191,58.7470034 C106.939238,54.690239 106.811032,49.9007258 106.885257,45.4242962 C106.939238,42.1402489 110.765161,41.1676913 113.848842,42.726448 C120.454801,46.0571248 124.09179,51.8191956 128.018929,57.6811868 C138.336101,73.095559 143.666753,90.3218193 147.479181,108.067665 C149.753142,118.619249 150.981216,129.443949 151.86516,140.215358 C152.796337,151.499691 153.01901,162.86396 152.998767,174.188261 C152.998767,178.737965 151.77744,183.354283 150.637086,187.824052 C149.720709,191.783119 146.039016,194.507662 141.932604,194.265581 C137.830026,193.932513 135.394121,191.287956 134.314496,186.658315 C131.790871,175.846938 132.755786,164.842382 132.135001,153.924423 C131.689656,146.010735 131.01489,138.103709 130.421096,129.830307 C114.28744,139.156202 98.7070926,148.288918 80.7178305,153.81118 C84.003941,161.085378 87.2698085,168.27964 90.5019378,175.493886 C92.5734695,180.116866 94.8676739,184.673231 96.5073554,189.449422 C97.1281401,191.241326 96.9392056,194.325533 95.7718604,195.44464 C94.4223284,196.776911 91.4870962,197.169931 89.3548355,196.936783 C79.7056814,195.890951 74.233329,189.402792 70.461387,181.41583 C67.1550335,174.434731 64.523446,167.14721 61.4397653,160.066191 C60.8948016,158.827762 59.8939614,157.839723 58.6394863,157.30173 C52.1819755,155.23671 50.3196212,149.614528 54.1995259,143.932393 C55.0783798,142.634483 55.4367524,141.060242 55.2049272,139.515916 C51.4869664,124.088221 47.384389,108.747123 43.8283721,93.2794603 C42.580055,87.8371344 42.3506345,82.1350158 42.0199992,76.5328174 C41.824317,73.2021406 43.0523912,70.3044518 46.2440345,68.4792409 C47.3776414,67.8131056 48.2008559,66.6806755 49.2467433,65.861329 C52.7285359,63.1434967 56.6016929,63.8762456 58.1266641,67.9729781 C59.6547004,72.3082454 60.9165534,76.7305271 61.9053538,81.215749 C63.84868,89.3092936 65.4681184,97.4827744 67.4586782,105.562996 C69.9553124,115.661608 72.6678718,125.666961 75.5626181,136.798083 Z" id="Shape"></path>
                <path d="M600.041497,142.444037 C593.778902,146.910687 588.198175,151.518815 582.048122,155.123125 C574.348969,159.630198 566.424734,163.962107 558.149635,167.155459 C550.576264,170.07933 542.294545,170.153437 534.37031,167.916744 C528.061375,166.138168 523.281677,161.900577 520.15038,156.086521 C517.019082,150.272464 520.600545,144.68073 527.022022,145.307274 C529.127207,145.509385 531.695798,146.102243 533.099255,147.503546 C539.659754,154.065412 547.392006,152.953802 554.329849,149.908665 C563.022477,146.101621 571.28037,141.339481 578.956544,135.707008 C591.614136,126.369485 603.60972,116.095516 615.790666,106.06408 C618.715447,103.560794 621.471224,100.859869 624.039285,97.979645 C627.667088,94.0654311 633.075693,92.8527659 637.610447,95.1770409 C644.230527,98.5455554 644.846194,106.62999 638.934463,111.076429 C632.208463,116.156149 625.561903,121.350399 618.842522,126.436856 C617.041861,127.784262 616.333512,129.448308 615.969408,131.745635 C613.089673,149.901928 614.943296,167.997588 616.446054,186.086511 C618.64392,212.576509 621.609716,239.039559 620.623324,265.684509 C619.828914,287.027417 614.301148,307.09029 602.709389,325.084894 C597.075702,333.843032 589.641353,340.44532 579.261068,343.092973 C565.895128,346.50191 547.577368,340.000677 540.507124,328.642046 C538.56082,325.516064 537.554568,321.682695 536.614517,318.044699 C535.952509,315.538524 536.190832,312.655076 539.077187,311.401988 C541.764939,310.236482 543.777443,311.981373 545.405982,313.867741 C549.075708,318.236879 553.742349,321.623462 558.997005,323.730751 C561.825457,324.95619 564.778263,325.85994 567.801711,326.425563 C576.361473,327.698861 582.710129,323.784648 587.608988,316.919615 C594.606412,307.117238 598.346757,295.913558 601.266212,284.325868 C604.715273,270.642962 604.371029,256.704049 603.874523,242.812295 C603.272096,226.003408 601.696517,209.234943 601.008029,192.426055 C600.346021,176.964574 600.346021,161.476144 600.081218,146.001188 C600.041497,144.983897 600.041497,143.959868 600.041497,142.444037 Z" id="Shape"></path>
                <path d="M300.882801,365.453792 C304.169383,360.760191 307.162043,356.458286 310.194783,352.183394 C311.530791,350.31946 313.234203,348.06383 315.538818,349.414507 C316.934947,350.231666 317.970354,352.858732 317.997074,354.688899 C318.130675,365.393011 313.675086,374.584366 307.516085,382.850507 C303.240857,388.590883 293.975636,387.773723 291.016377,381.182421 C288.474904,375.460143 286.85567,369.36353 286.220105,363.123875 C284.817296,349.151125 284.282892,335.083828 283.394446,321.063804 C283.240805,318.61908 283.060444,316.174355 282.886763,313.72963 L281.978277,313.513522 C280.775869,316.660599 279.232779,319.719881 278.424494,322.968258 C275.211393,335.799686 272.225413,348.725662 269.152593,361.611117 C268.484588,364.31247 267.930145,367.101617 267.095139,369.775957 C266.238381,372.875576 263.935459,375.355128 260.929459,376.414533 C256.153227,378.143399 252.352282,375.739195 252.111801,370.59987 C251.550677,358.585601 251.196635,346.557826 250.56203,334.550311 C250.368309,330.937251 249.526624,327.364711 248.98554,323.744898 L247.763092,323.447749 C245.645518,326.40573 243.254062,329.201631 241.457131,332.341954 C231.697586,349.367233 227.429038,367.918777 226.914675,387.463068 C226.834514,390.610144 226.914675,393.797741 226.440392,396.917804 C226.12839,399.11636 225.286487,401.20364 223.988816,402.995849 C221.6508,405.987598 217.495813,405.562135 215.612041,402.171936 C214.353954,400.050884 213.582403,397.671587 213.354186,395.209198 C212.145098,369.938038 211.169811,344.660125 210.014164,319.388965 C209.820442,315.114074 211.637414,311.777903 214.02219,308.624073 C215.638761,306.496757 217.702894,306.530524 218.698221,308.948235 C219.947336,311.680467 220.759062,314.596013 221.103037,317.585812 C221.771041,325.602078 221.971442,333.658864 222.946729,341.749417 C225.244664,337.082829 227.429038,332.348708 229.873934,327.76316 C233.013555,321.880964 236.8813,316.552544 242.225336,312.453241 C247.756412,308.212116 254.964179,309.319671 258.257441,315.519277 C260.408415,319.571307 261.544023,324.217634 262.933472,328.12109 C265.104486,322.205126 267.108499,315.634084 269.940838,309.441232 C271.826247,305.253607 274.378527,301.40711 277.495968,298.055028 C283.775209,291.450219 291.303618,293.050771 293.394472,301.857183 C295.692407,311.521274 296.640974,321.543295 297.729821,331.457261 C298.905508,342.181634 299.566833,352.960033 300.461959,363.718172 C300.570077,364.304202 300.710578,364.883649 300.882801,365.453792 Z" id="Shape"></path>
                <path d="M575,222.056694 C573.193108,248.295327 563.909186,268.82469 545.435733,284.938706 C534.594378,294.396353 520.098786,295.61024 508.353985,288.166845 C501.510717,283.824865 497.883448,277.008423 495.254014,269.685083 C491.242443,258.52666 489.597362,246.874679 488.289388,235.169341 C487.723048,230.093693 487.048835,225.004705 487.00164,219.915717 C486.961187,216.220699 487.675853,212.485662 488.404004,208.830662 C488.889438,206.342861 490.318771,204.161866 493.190921,203.908417 C496.224882,203.641629 498.254265,205.615862 498.914994,208.163691 C500.411749,213.939659 501.416327,219.835681 502.629911,225.678346 C505.111017,237.617124 507.524702,249.575911 510.147393,261.481341 C510.789965,263.841572 511.751529,266.105239 513.006059,268.211077 C517.52329,276.621579 525.519463,278.275667 533.232467,272.412993 C540.129672,267.157263 545.037947,260.300803 549.076487,252.770702 C554.97346,241.967999 557.913574,229.828049 557.605289,217.554641 C557.517641,214.086392 556.735553,210.624813 556.668132,207.156565 C556.634421,205.44912 556.97827,202.874612 558.077238,202.23432 C559.176207,201.594028 561.846093,202.361045 563.086646,203.38818 C566.248707,206.016045 569.660228,208.723947 571.730064,212.158846 C573.7999,215.593746 574.332529,219.915717 575,222.056694 Z" id="Shape"></path>
                <path d="M725,148.70912 C723.03503,170.576158 718.834058,189.875323 706.935824,207.041282 C691.859758,228.794638 658.407832,223.913006 648.664289,200.775406 C644.131306,190.029128 641.000905,178.707753 637.213255,167.647178 C636.420491,165.326731 635.356697,163.08653 634.746878,160.72596 C634.154307,158.709938 633.911473,156.609527 634.028648,154.513581 C634.421642,150.561465 637.992467,148.729181 641.481983,150.742019 C645.649076,153.162773 649.612895,155.737333 651.381369,160.77277 C654.430461,169.466088 657.852219,178.099221 661.192669,186.71898 C662.129894,189.101409 663.211451,191.426052 664.431482,193.680321 C668.463059,201.203385 675.272698,204.627215 683.573004,202.681249 C686.201999,202.066029 688.898751,200.126751 690.734982,198.07379 C697.476863,190.523978 700.803761,181.228815 702.93135,171.612669 C705.214781,161.414738 706.908721,151.076377 708.778831,140.791513 C709.347995,137.668606 710.133983,134.699504 713.786117,134.104346 C717.275634,133.509188 719.755562,135.528713 721.090387,138.410882 C722.818205,142.142321 724.058169,146.101124 725,148.70912 Z" id="Shape"></path>
                <path d="M766.493724,129 C761.346489,129 758.012034,126.503532 757.191652,122.568882 C756.291878,118.240766 758.607472,113.749837 763.146037,112.094571 C769.556925,109.713429 776.073668,107.610426 782.590412,105.534559 C794.807142,101.741388 807.366261,99.2230962 820.076573,98.0180194 C821.631329,97.8552063 824.257874,98.8185173 824.747457,99.9853447 C825.36936,101.464231 824.747457,103.913211 823.913843,105.548126 C820.083189,113.091801 813.176102,116.049573 805.62065,118.111872 C793.500168,121.422406 781.432615,124.956807 769.345213,128.375883 C768.187416,128.701509 766.989923,128.891458 766.493724,129 Z" id="Shape"></path>
                <path d="M203,144.819794 C202.216787,147.49345 201.93321,150.450276 200.522077,152.761738 C198.699082,155.751491 195.795793,157.641489 191.744692,156.798563 C186.883371,155.791003 184.432456,152.557592 183.797783,148.158571 C181.852441,134.300884 178.130048,120.736419 172.718023,107.783732 C170.79375,103.173981 172.907074,97.7410591 177.032445,95.6864269 C180.786465,93.8161848 185.911107,95.9037438 188.632097,100.296179 C195.67426,111.583485 199.50255,123.911278 201.352552,136.910777 C201.534852,138.227849 202.027736,139.459311 202.18978,140.756627 C202.351824,142.053943 202.365328,143.390771 202.439598,144.707843 L203,144.819794 Z" id="Shape"></path>
                <path d="M753.993849,17.4126314 C754.151465,24.6176157 751.252704,31.4600006 748.449883,38.2822411 C745.955441,44.3994272 743.084092,50.3688877 740.459445,56.412211 C739.936698,57.7568557 739.542117,59.146033 739.280753,60.5619596 C738.060943,66.0479542 733.113177,67.6997959 728.699933,64.0536575 C724.28669,60.4075191 722.737943,53.7397191 725.10218,48.1059989 C728.220233,40.6659964 731.584988,33.3334308 734.764716,25.9471468 C735.73097,23.684258 736.06676,21.0923438 737.348246,19.0510435 C739.698777,15.3108979 742.145249,11.5036042 745.297566,8.41479452 C748.196327,5.55428817 752.260075,7.2732779 753.308562,11.4028821 C753.78141,13.1890199 753.753999,15.1228834 753.993849,17.4126314 Z" id="Shape"></path>
                <path d="M162.388579,334.22982 C162.175658,333.419365 161.789739,331.711379 161.29736,330.036883 C159.174805,322.863344 162.874305,316.727992 169.408314,317.009307 C171.261693,317.07231 173.035492,317.782755 174.425262,319.018702 C179.329096,324.149357 181.611342,330.405272 180.859465,337.572114 C180.540084,340.626394 179.568632,343.600298 179.149444,346.64788 C178.523989,351.182414 175.469905,354.163016 172.675319,357.257484 C169.880732,360.351952 167.219221,360.660059 164.025408,359.019054 C161.117708,357.525404 159.580685,354.163016 160.09968,350.5662 C160.838249,345.469035 161.543549,340.331682 162.388579,334.22982 Z" id="Shape"></path>
                <path d="M766.903617,78 C762.020124,77.8841792 759.39699,76.5624596 757.99473,73.6124359 C756.223438,70.2529806 756.859139,66.162782 759.5714,63.4678973 C763.833993,58.9985774 768.305877,54.6927692 772.980078,50.6322285 C775.81941,48.3149958 778.874431,46.2621611 782.105235,44.5005396 C785.05626,42.7768537 788.34913,42.1568718 791.17458,44.7253682 C794.00003,47.2938645 792.988449,50.373335 791.83734,53.5277483 C790.0444,58.4262864 786.786412,62.0167309 782.767995,65.280152 C779.279785,68.1007289 776.377594,71.5549137 772.931243,74.4027425 C770.789483,76.1264284 768.152396,77.2641973 766.903617,78 Z" id="Shape"></path>
                <path d="M169.208331,68.944443 C162.235894,69.4850757 158.749675,65.9973359 155.9607,62.0810458 C154.182729,59.7141298 154.977586,56.9054773 157.480691,55.0989732 C159.384167,53.7078331 161.475898,52.2507622 163.755885,51.6573849 C168.934808,50.3344423 174.458182,51.0252841 179.095248,53.5759715 C182.114313,55.164904 183.459994,58.098825 182.860364,61.4547031 C182.16312,65.2786901 179.269559,67.2698005 175.609029,68.1796456 C173.499198,68.5884805 171.359394,68.8441584 169.208331,68.944443 Z" id="Shape"></path>
            </g>
        </g>
    </g>
</svg>