<?xml version="1.0" encoding="UTF-8"?>
<svg width="21px" height="21px" viewBox="0 0 21 21" version="1.1" xmlns="http://www.w3.org/2000/svg" xmlns:xlink="http://www.w3.org/1999/xlink">
    <!-- Generator: Sketch 48.2 (47327) - http://www.bohemiancoding.com/sketch -->
    <title>Medium-hover</title>
    <desc>Created with Sketch.</desc>
    <defs></defs>
    <g id="1440" stroke="none" stroke-width="1" fill="none" fill-rule="evenodd" transform="translate(-174.000000, -713.000000)">
        <g id="Medium-hover" transform="translate(174.000000, 713.000000)">
            <circle id="Oval-2-Copy-3" fill="#FF432E" cx="10.5" cy="10.5" r="10.5"></circle>
            <path d="M8.25,7.17047714 L8.25,15.332505 C8.25,15.5482107 8.15577889,15.75 7.94221106,15.75 C7.86683417,15.75 7.79773869,15.7291252 7.73492462,15.694334 L4.81407035,14.0730616 C4.63819095,13.9756461 4.5,13.7251491 4.5,13.5164016 L4.5,5.58399602 C4.5,5.41003976 4.57537688,5.25 4.74497487,5.25 C4.84547739,5.25 4.93341709,5.305666 5.02135678,5.35437376 L8.23115578,7.13568588 C8.23743719,7.14264414 8.25,7.16351889 8.25,7.17047714 Z M9,8.25 L12.75,14.25 L9,12.4070439 L9,8.25 Z M16.5,8.25 L16.5,15.3716216 C16.5,15.5945946 16.3680556,15.75 16.1388889,15.75 C16.0208333,15.75 15.9097222,15.7162162 15.8125,15.6621622 L12.75,14.1756757 L16.5,8.25 Z M16.5,7.20668629 C16.5,7.23444071 13.2243928,13.0559294 12.9709609,13.5 L10.5,9.10092515 L12.5527983,5.44428091 C12.6224921,5.31938604 12.749208,5.25 12.8822598,5.25 C12.9392819,5.25 12.9963041,5.26387721 13.0469905,5.29163162 L16.4746568,7.16505467 C16.4873284,7.17199327 16.5,7.18587048 16.5,7.20668629 Z" id="medium---FontAwesome-Copy" fill="#FFFFFF"></path>
        </g>
    </g>
</svg>