<?xml version="1.0" encoding="UTF-8"?>
<svg width="120px" height="58px" viewBox="0 0 120 58" version="1.1" xmlns="http://www.w3.org/2000/svg" xmlns:xlink="http://www.w3.org/1999/xlink">
    <!-- Generator: Sketch 48.2 (47327) - http://www.bohemiancoding.com/sketch -->
    <title>Title-About</title>
    <desc>Created with Sketch.</desc>
    <defs></defs>
    <g id="1440" stroke="none" stroke-width="1" fill="none" fill-rule="evenodd" transform="translate(-212.000000, -89.000000)">
        <g id="Title-About" transform="translate(212.000000, 89.000000)" fill="#000000" fill-rule="nonzero">
            <path d="M117.825492,0 C118.214479,0.211688162 118.603465,0.423376325 118.992452,0.670345847 C120.2655,1.5170985 120.300862,2.54025795 119.275352,3.70454284 C117.401143,5.85670582 114.89041,6.49177031 112.27359,6.98570936 C111.460254,7.1268348 110.68228,7.3032416 110.081119,7.40908568 C110.081119,11.0783472 109.975031,14.6417646 110.116481,18.205182 C110.222568,22.0155689 110.54083,25.7906744 110.788367,29.6010614 C110.929817,31.717943 111.071267,33.7995432 111.318804,35.8811435 C111.566341,37.9274624 110.646918,39.5151236 108.843433,39.9385 C107.322849,40.2913136 105.554727,39.0917473 105.130378,37.2218352 C104.741391,35.3872045 104.458491,33.5172924 104.423129,31.6473803 C104.352404,24.8380777 104.387767,18.0287752 104.387767,11.2194726 C104.387767,10.5844081 104.387767,9.94934363 104.387767,9.24371642 C99.6845627,9.94934363 95.0874461,10.6196895 90.3488798,11.2900353 C90.20743,13.3716356 90.1720676,15.7707681 89.8891681,18.1346192 C89.2880067,22.6859147 88.6868453,27.2724916 87.7320596,31.7532243 C87.201623,34.1170755 85.9993002,36.3750826 82.9581308,36.6926148 C79.4572497,37.0454284 76.8050671,35.5283299 75.5320194,32.5294143 C74.2589718,29.56578 73.4809982,26.3551762 73.0212865,23.1445724 C72.5262124,19.5458737 72.7030246,15.8766122 72.5615749,12.2779134 C72.49085,10.2668759 73.5163606,8.96146554 75.2491199,8.14999425 C76.7343422,7.44436704 78.2549269,8.39696377 78.2195645,9.98462499 C78.1842021,11.0783472 77.936665,12.1720693 77.9013026,13.2657915 C77.8305777,14.5712018 77.7244904,15.9118935 77.936665,17.2173039 C78.4671015,20.9218467 78.9975381,24.5911082 79.7401492,28.2603697 C79.9523238,29.2835291 80.942472,30.1302818 81.5789958,31.0475971 C82.0387075,30.1302818 82.7459562,29.2129664 82.8874059,28.2603697 C83.5239298,22.7917588 84.0897287,17.3584293 84.5494404,11.8898184 C84.6908901,10.1257504 84.5848028,8.36168241 84.6201653,6.59761439 C84.6555277,4.41017005 85.3981388,3.10475971 86.7772738,2.82250883 C88.7222077,2.43441387 89.4648189,3.77510556 90.1720676,5.39804814 C98.9773139,5.18635998 107.216761,1.90519346 115.703746,0 C116.410994,0 117.118243,0 117.825492,0 Z" id="Shape"></path>
            <path d="M20.7705796,35.033461 C16.7462499,37.3199651 12.933727,39.4657612 9.15650525,41.6819113 C8.838795,41.8577962 8.59168704,42.27992 8.52108476,42.6316899 C7.77976087,45.6217337 7.03843697,48.6117774 6.36771535,51.6018212 C5.90880055,53.6772634 4.56735731,54.8732809 2.76699927,54.7325729 C1.00194238,54.591865 -0.268898591,53.2199625 0.0488116509,51.1445204 C0.719533272,46.8529282 1.672664,42.5965129 2.696397,38.3752746 C4.53205617,30.7770458 6.61482331,23.2843478 8.37988021,15.650942 C8.87409614,13.5051459 8.97999956,11.3241728 10.1449371,9.35426156 C10.9215621,8.01753611 12.0158974,6.96222655 13.4279429,7.27881942 C14.8046873,7.59541229 15.7225169,8.93213774 15.5813124,10.5151021 C15.4401078,12.0277125 16.2167328,13.0126681 16.9580567,14.1383316 C19.5703409,18.3595699 22.0414206,22.6511621 24.6184037,26.9779313 C26.6305685,26.5558075 28.783938,26.1336837 30.9020062,25.6763829 C30.6195971,22.4049232 30.2312846,19.1686405 30.1253812,15.9675348 C30.0900801,14.7715173 30.3724892,13.153376 31.1491142,12.4146593 C32.2434495,11.3945267 33.902603,10.5854561 35.4205519,10.4095711 C39.1977737,9.95227032 43.0102966,9.84673936 46.8228195,9.63567745 C48.8702855,9.53014649 50.7765469,11.3945267 50.9177515,13.6106768 C51.1648594,17.0931984 50.1411264,20.1887731 48.234865,23.002932 C47.2464331,24.4803653 46.1520978,25.9577987 45.0930637,27.4352321 C47.6700468,27.1889932 50.2117287,26.9427543 52.859314,26.6965154 C53.9536493,22.862224 56.7424392,19.9777112 59.8842405,17.5504992 C63.4496554,14.8066943 70.0862694,16.4951896 71.3571103,20.435012 C71.9572297,22.3345692 72.027832,24.4451884 71.9925308,26.4854535 C71.9219285,31.1288156 71.0394001,35.5611158 68.4271159,39.6416461 C66.0619396,43.3000526 60.272553,44.0739463 57.6602688,40.4507168 C56.7777404,39.1843453 56.6718369,37.3551421 56.3188256,35.7370007 C56.177621,34.998284 56.2835244,34.2243903 56.2835244,33.4153197 C55.5775017,33.2394347 54.9420812,33.0635498 54.2360584,32.8876649 C51.835581,38.5159826 47.2464331,42.350274 42.7278875,46.2549194 C41.5629499,47.239875 40.3274101,48.0841227 39.0918702,48.9987243 C37.7857281,49.9836799 36.3736826,50.5465116 34.9616371,49.2449632 C33.5848927,47.9785917 34.2203132,46.6066893 34.7851314,45.4106717 C32.4199552,39.817531 32.3493529,33.9077975 31.2550176,27.9980639 C29.6664664,29.2996124 28.0779152,30.6011608 26.5599663,31.8675323 C28.4309266,36.8274873 30.2312846,41.7170883 32.1022449,46.6066893 C32.8082677,48.4710695 33.5495916,50.3354497 34.4674212,52.129476 C35.2087451,53.5365554 34.8910348,54.7325729 34.2556143,55.9285904 C33.0553756,58.2150945 31.5021256,58.3558024 29.807671,56.4914222 C27.2306879,53.6772634 26.4187617,50.0188569 25.0773185,46.6066893 C23.5946707,42.8427518 22.2532274,39.0084604 20.7705796,35.033461 Z M45.2093023,15.5555556 C42.4744186,15.5555556 39.8460888,15.5555556 37.3953488,15.5555556 C37.3953488,19.5164609 37.3953488,23.2613169 37.3953488,27.2222222 C41.2312896,24.0895062 44.4989429,19.1923868 45.2093023,15.5555556 Z M66.073414,22.3004665 C62.9109978,21.9426307 61.9622729,22.7656531 61.9622729,25.7356909 C61.9622729,28.7057286 61.9271349,31.6757663 61.9974108,34.645804 C61.9974108,35.5046101 62.2082386,36.3276326 62.3487904,37.2222222 C65.4760687,36.1844982 67.1978287,28.8488629 66.073414,22.3004665 Z M18.9767442,29.5706371 C17.5593294,26.8805786 16.1419145,24.2259157 14.4700919,21.1111111 C13.3070849,25.6417359 12.2531098,29.6414281 11.1627907,33.8888889 C13.8522445,32.4376731 16.3236344,31.0572484 18.9767442,29.5706371 Z M48,33.1550069 C47.8583825,33.0178326 47.716765,32.8806584 47.6105519,32.7777778 C44.6365845,33.2578875 41.6626171,33.7722908 38.5116279,34.2866941 C38.9364804,36.4471879 39.3613329,38.6076818 39.8569941,41.1111111 C42.689344,38.3333333 45.344672,35.7613169 48,33.1550069 Z" id="Shape"></path>
        </g>
    </g>
</svg>