<?xml version="1.0" encoding="UTF-8"?>
<svg width="100px" height="83px" viewBox="0 0 100 83" version="1.1" xmlns="http://www.w3.org/2000/svg" xmlns:xlink="http://www.w3.org/1999/xlink">
    <!-- Generator: Sketch 48.2 (47327) - http://www.bohemiancoding.com/sketch -->
    <title>Portfolio</title>
    <desc>Created with Sketch.</desc>
    <defs></defs>
    <g id="Portfolio" stroke="none" stroke-width="1" fill="none" fill-rule="evenodd" transform="translate(-789.000000, -1313.000000)">
        <g id="Group" transform="translate(-137.000000, 0.000000)" fill="#000000" fill-rule="nonzero">
            <g id="About-block" transform="translate(174.000000, 813.000000)">
                <g id="Skill-block" transform="translate(294.000000, 504.000000)">
                    <g id="GraphicDesign" transform="translate(469.317478, 0.000000)">
                        <g id="Vector-icon">
                            <path d="M34.9398103,50.4869684 L37.4026017,48.0220748 L27.3548862,37.9561044 L24.8944629,40.4233703 C21.0208945,32.2655276 22.6834267,22.5488888 29.0480554,16.1492695 L25.692502,12.7947368 C19.6977361,18.8253041 17.0077581,27.4012772 18.4817328,35.7830125 L13.6556088,30.9457479 C15.3817829,27.3662848 13.8845715,23.0628036 10.3117478,21.3336417 C6.73877619,19.6043314 2.44309958,21.1042631 0.717073513,24.6835779 C-1.00910056,28.263041 0.488110871,32.5665221 4.06093451,34.2956841 C6.03383174,35.2505635 8.33367046,35.2513048 10.3071597,34.2979082 L20.657988,44.6722869 L17.3095388,48.0291919 L27.3548862,58.0951624 L30.7057034,54.7382573 L41.0565317,65.1078913 C39.376091,68.6525102 40.8820346,72.8907511 44.4202253,74.5743932 C47.9584159,76.257887 52.1889706,74.7492073 53.8695594,71.2045884 C55.1577888,68.4873338 54.5983325,65.2518645 52.4729909,63.1269614 C50.3165683,61.0711536 47.1285558,60.5366288 44.4215573,61.7770823 L39.5717526,56.9208387 C47.9400634,58.4188428 56.510548,55.7198259 62.5183383,49.6945964 L62.5254425,49.6945964 L59.1769933,46.3329466 C52.786464,52.7104732 43.0833025,54.3735053 34.9398103,50.4869684 Z M8.37813742,29.4437125 C7.49574872,30.3255683 6.06474504,30.3258506 5.18207384,29.4441358 C4.29940264,28.562421 4.29912014,27.1328803 5.18165009,26.2510244 C6.06418004,25.3691685 7.49504247,25.3688863 8.37771367,26.250601 C8.37785492,26.2507422 8.37799617,26.2508833 8.37813742,26.2510244 C9.26038487,27.1327392 9.26038487,28.5619977 8.37813742,29.4437125 Z M27.49493,51.1789474 L24.1061947,47.7933025 L27.49493,44.4052632 L30.8860619,47.7933025 L27.49493,51.1789474 Z M45.8647842,66.1205568 L45.8670578,66.1182752 C46.7708162,65.2435696 48.2101509,65.2696654 49.0819367,66.1765984 C49.9322653,67.0614286 49.9312706,68.4631821 49.0796631,69.3467289 C48.1810203,70.2107395 46.763427,70.2107395 45.8647842,69.3467289 C44.9772253,68.4557669 44.9772253,67.0115188 45.8647842,66.1205568 Z" id="Shape"></path>
                            <rect id="Rectangle-path" transform="translate(56.122235, 19.944737) rotate(134.991897) translate(-56.122235, -19.944737) " x="53.4856195" y="17.3105263" width="5.27323009" height="5.26842105"></rect>
                            <path d="M71.9615226,13.5474137 L69.2316706,16.2492249 L59.060693,6.08446927 L61.764158,3.36827397 L58.3626377,0 L54.3878004,3.97959771 L43.4803864,7.61637466 L35.4059735,39.8894737 L67.7012263,31.8200003 L71.3402294,20.9144641 L75.3318584,16.9468531 L71.9615226,13.5474137 Z M63.788914,28.0049589 L46.3485833,32.3631579 L52.1028854,26.6129228 L48.6934614,23.2322637 L42.9391593,28.9824988 L47.3076337,11.5353272 L54.8217932,9.03157895 L66.2920354,20.4913183 L63.788914,28.0049589 Z" id="Shape"></path>
                        </g>
                    </g>
                </g>
            </g>
        </g>
    </g>
</svg>