<?xml version="1.0" encoding="UTF-8"?>
<svg width="100px" height="83px" viewBox="0 0 100 83" version="1.1" xmlns="http://www.w3.org/2000/svg" xmlns:xlink="http://www.w3.org/1999/xlink">
    <!-- Generator: Sketch 48.2 (47327) - http://www.bohemiancoding.com/sketch -->
    <title>Portfolio</title>
    <desc>Created with Sketch.</desc>
    <defs></defs>
    <g id="Portfolio" stroke="none" stroke-width="1" fill="none" fill-rule="evenodd" transform="translate(-332.000000, -1313.000000)">
        <g id="Group" transform="translate(-137.000000, 0.000000)" fill="#000000" fill-rule="nonzero">
            <g id="About-block" transform="translate(174.000000, 813.000000)">
                <g id="Skill-block" transform="translate(294.000000, 504.000000)">
                    <g id="WebDesign" transform="translate(0.000000, 2.257895)">
                        <g id="Web-icon" transform="translate(10.546460, 0.000000)">
                            <path d="M38.9386798,12.0421053 C37.7384837,12.0421053 36.7304039,12.7387848 36.1684712,13.7265058 C18.7318634,14.1227355 11.9988377,23.2693341 11.4651305,32.258613 C10.4848212,32.8275859 9.79314159,33.85803 9.79314159,35.0841983 C9.79314159,36.9029375 11.2505551,38.3842105 13.039999,38.3842105 C14.829443,38.3842105 16.2868565,36.9029375 16.2868565,35.0841983 C16.2868565,33.9029124 15.6385776,32.9121067 14.717451,32.3287899 C15.0593453,27.7097599 17.9271295,17.45051 36.2226462,17.0388568 C36.795505,17.9796903 37.7733863,18.6421297 38.9389833,18.6421297 C40.7284272,18.6421297 42.1858407,17.1608567 42.1858407,15.3421175 C42.1858407,13.5233783 40.7281237,12.0421053 38.9386798,12.0421053 Z" id="Shape"></path>
                            <path d="M67.9404364,29.0017614 L51.61817,16.1576174 C51.1255961,15.7703348 50.4530698,15.6965811 49.8902595,15.964804 C49.3259189,16.2328764 48.965708,16.7941576 48.965708,17.4120336 L48.965708,38.2838992 C48.965708,38.9658958 49.4041125,39.572784 50.0575112,39.7985609 C50.2344032,39.8596711 50.417722,39.8894737 50.5978275,39.8894737 C51.0839745,39.8894737 51.5557375,39.6746846 51.8729496,39.2874021 L57.9108431,31.8619025 L66.9199408,31.8619025 C67.613278,31.8619025 68.2302577,31.4306687 68.4597888,30.7879573 C68.68932,30.1452459 68.4807527,29.4281786 67.9404364,29.0017614 Z" id="Shape"></path>
                            <path d="M71.8161804,0 L6.52879932,0 C2.92967379,0 0,2.91523965 0,6.5000277 L0,51.9999169 C0,55.584705 2.92967379,58.4999446 6.52879932,58.4999446 L29.3867122,58.4999446 C29.3181604,61.0925213 28.8208534,65.2396082 26.9534273,67.1978278 C26.2680618,67.9150596 25.4838469,68.24991 24.4828062,68.24991 C23.5806148,68.24991 22.8505681,68.9767394 22.8505681,69.874955 C22.8505681,70.7731705 23.5806148,71.5 24.4828062,71.5 L53.8621736,71.5 C54.764365,71.5 55.4944116,70.7731705 55.4944116,69.874955 C55.4944116,68.9767394 54.764365,68.24991 53.8621736,68.24991 C52.8611328,68.24991 52.0769179,67.916583 51.3947658,67.1993512 C49.5319302,65.2508816 49.0314099,61.0978533 48.9602567,58.4999446 L71.8163334,58.4999446 C75.415459,58.4999446 78.3451327,55.5848573 78.3451327,51.9999169 L78.3451327,6.5000277 C78.3449797,2.91523965 75.4153059,0 71.8161804,0 Z M39.5492257,55.6947368 C37.680928,55.6947368 36.159292,54.1744886 36.159292,52.3078947 C36.159292,50.4413009 37.680928,48.9210526 39.5492257,48.9210526 C41.4175234,48.9210526 42.9391593,50.4413009 42.9391593,52.3078947 C42.9391593,54.1744886 41.4175234,55.6947368 39.5492257,55.6947368 Z M6.77986726,45.9105263 L6.77986726,6.77368421 L72.3158193,6.77368421 L72.3185841,45.9105263 L6.77986726,45.9105263 Z" id="Shape"></path>
                        </g>
                    </g>
                </g>
            </g>
        </g>
    </g>
</svg>